<mxfile modified="2022-05-05T02:59:46.575Z" host="app.diagrams.net" agent="5.0 (Windows NT 10.0; Win64; x64) AppleWebKit/537.36 (KHTML, like Gecko) Chrome/100.0.4896.127 Safari/537.36 Edg/100.0.1185.50" etag="KUhIH9mMnEkRUHF0q790" compressed="false" version="17.5.0" type="google">
  <diagram id="-l89P8PC1MYh0bsbo5wZ" name="Development/Information Service/DDD Component Pattern">
    <mxGraphModel grid="1" page="1" gridSize="10" guides="1" tooltips="1" connect="1" arrows="1" fold="1" pageScale="1" pageWidth="827" pageHeight="1169" math="0" shadow="0">
      <root>
        <mxCell id="CrTpdOU12fkwMGm-i2Br-0" />
        <mxCell id="CrTpdOU12fkwMGm-i2Br-1" value="Diagram" parent="CrTpdOU12fkwMGm-i2Br-0" />
        <mxCell id="KwtxxgCXZxtR8-vsssmV-0" value="A Logical Module" style="rounded=0;whiteSpace=wrap;html=1;fontSize=12;fontColor=#666666;align=left;dashed=1;labelPosition=center;verticalLabelPosition=middle;verticalAlign=top;" vertex="1" parent="CrTpdOU12fkwMGm-i2Br-1">
          <mxGeometry x="140" y="190" width="490" height="390" as="geometry" />
        </mxCell>
        <mxCell id="CrTpdOU12fkwMGm-i2Br-29" value="" style="ellipse;whiteSpace=wrap;html=1;aspect=fixed;rounded=1;shadow=0;glass=0;labelBackgroundColor=none;strokeColor=none;strokeWidth=1;fillColor=#736CA8;gradientColor=none;fontFamily=Helvetica;fontSize=16;fontColor=#2F5B7C;align=right;opacity=10;spacing=15;" vertex="1" parent="CrTpdOU12fkwMGm-i2Br-1">
          <mxGeometry x="350" y="260" width="260" height="260" as="geometry" />
        </mxCell>
        <mxCell id="CrTpdOU12fkwMGm-i2Br-5" value="&amp;nbsp;Infrastructure Services&lt;br&gt;&lt;font style=&quot;font-size: 11px&quot;&gt;(Tech Domain)&lt;/font&gt;" style="html=1;outlineConnect=0;whiteSpace=wrap;fillColor=none;shape=mxgraph.archimate3.application;appType=comp;archiType=square;fontSize=12;align=left;strokeColor=#009999;" vertex="1" parent="CrTpdOU12fkwMGm-i2Br-1">
          <mxGeometry x="240" y="370" width="80" height="50" as="geometry" />
        </mxCell>
        <mxCell id="CrTpdOU12fkwMGm-i2Br-6" value="Shared&amp;nbsp;&lt;br&gt;(Models, DTOs)" style="html=1;outlineConnect=0;whiteSpace=wrap;fillColor=none;shape=mxgraph.archimate3.application;appType=comp;archiType=square;fontSize=12;align=left;strokeColor=#009999;" vertex="1" parent="CrTpdOU12fkwMGm-i2Br-1">
          <mxGeometry x="360" y="370" width="80" height="50" as="geometry" />
        </mxCell>
        <mxCell id="CrTpdOU12fkwMGm-i2Br-7" value="(a specific)&lt;br&gt;Domain Services" style="html=1;outlineConnect=0;whiteSpace=wrap;fillColor=none;shape=mxgraph.archimate3.application;appType=comp;archiType=square;fontSize=12;align=left;strokeColor=#009999;" vertex="1" parent="CrTpdOU12fkwMGm-i2Br-1">
          <mxGeometry x="480" y="370" width="80" height="50" as="geometry" />
        </mxCell>
        <mxCell id="CrTpdOU12fkwMGm-i2Br-8" value="Vendor &lt;br&gt;Libs&amp;nbsp;&amp;amp; 3rd party Service Clients" style="html=1;outlineConnect=0;whiteSpace=wrap;fillColor=none;shape=mxgraph.archimate3.application;appType=comp;archiType=square;fontSize=12;align=left;strokeColor=#009999;" vertex="1" parent="CrTpdOU12fkwMGm-i2Br-1">
          <mxGeometry x="240" y="440" width="80" height="50" as="geometry" />
        </mxCell>
        <mxCell id="CrTpdOU12fkwMGm-i2Br-9" value="Data Storage Services" style="html=1;outlineConnect=0;whiteSpace=wrap;fillColor=#f5f5f5;shape=mxgraph.archimate3.application;appType=comp;archiType=square;fontSize=12;align=left;strokeColor=#666666;opacity=30;fontColor=#808080;" vertex="1" parent="CrTpdOU12fkwMGm-i2Br-1">
          <mxGeometry x="160" y="510" width="80" height="50" as="geometry" />
        </mxCell>
        <mxCell id="CrTpdOU12fkwMGm-i2Br-10" value="Other Services" style="html=1;outlineConnect=0;whiteSpace=wrap;fillColor=#f5f5f5;shape=mxgraph.archimate3.application;appType=comp;archiType=square;fontSize=12;align=left;strokeColor=#666666;opacity=30;fontColor=#808080;" vertex="1" parent="CrTpdOU12fkwMGm-i2Br-1">
          <mxGeometry x="320" y="510" width="80" height="50" as="geometry" />
        </mxCell>
        <mxCell id="CrTpdOU12fkwMGm-i2Br-11" value="Application Services" style="html=1;outlineConnect=0;whiteSpace=wrap;fillColor=none;shape=mxgraph.archimate3.application;appType=comp;archiType=square;fontSize=12;align=left;strokeColor=#009999;" vertex="1" parent="CrTpdOU12fkwMGm-i2Br-1">
          <mxGeometry x="360" y="290" width="80" height="40" as="geometry" />
        </mxCell>
        <mxCell id="CrTpdOU12fkwMGm-i2Br-12" value="Service Facade&lt;br&gt;&lt;font style=&quot;font-size: 10px&quot;&gt;(Cross-Tier Protocol specific)&lt;/font&gt;" style="html=1;outlineConnect=0;whiteSpace=wrap;fillColor=none;shape=mxgraph.archimate3.application;appType=comp;archiType=square;fontSize=12;align=left;strokeColor=#009999;" vertex="1" parent="CrTpdOU12fkwMGm-i2Br-1">
          <mxGeometry x="360" y="200" width="80" height="60" as="geometry" />
        </mxCell>
        <mxCell id="CrTpdOU12fkwMGm-i2Br-13" value="" style="edgeStyle=elbowEdgeStyle;html=1;endArrow=open;elbow=vertical;endFill=1;labelBackgroundColor=#ffffff;strokeColor=#000000;strokeWidth=1;fontSize=12;entryX=0.5;entryY=1;entryDx=0;entryDy=0;entryPerimeter=0;" edge="1" parent="CrTpdOU12fkwMGm-i2Br-1" source="CrTpdOU12fkwMGm-i2Br-8" target="CrTpdOU12fkwMGm-i2Br-5">
          <mxGeometry width="160" relative="1" as="geometry">
            <mxPoint x="280" y="460" as="sourcePoint" />
            <mxPoint x="290" y="530" as="targetPoint" />
          </mxGeometry>
        </mxCell>
        <mxCell id="CrTpdOU12fkwMGm-i2Br-14" value="" style="edgeStyle=elbowEdgeStyle;html=1;endArrow=open;elbow=vertical;endFill=1;labelBackgroundColor=#ffffff;strokeColor=#000000;strokeWidth=1;fontSize=12;entryX=1;entryY=0.5;entryDx=0;entryDy=0;entryPerimeter=0;exitX=0;exitY=0.5;exitDx=0;exitDy=0;exitPerimeter=0;" edge="1" parent="CrTpdOU12fkwMGm-i2Br-1" source="CrTpdOU12fkwMGm-i2Br-6" target="CrTpdOU12fkwMGm-i2Br-5">
          <mxGeometry width="160" relative="1" as="geometry">
            <mxPoint x="290" y="480" as="sourcePoint" />
            <mxPoint x="290" y="439.95238095238096" as="targetPoint" />
          </mxGeometry>
        </mxCell>
        <mxCell id="CrTpdOU12fkwMGm-i2Br-15" value="" style="edgeStyle=elbowEdgeStyle;html=1;endArrow=open;elbow=vertical;endFill=1;labelBackgroundColor=#ffffff;strokeColor=#000000;strokeWidth=1;fontSize=12;entryX=0;entryY=0.5;entryDx=0;entryDy=0;entryPerimeter=0;exitX=1;exitY=0.5;exitDx=0;exitDy=0;exitPerimeter=0;" edge="1" parent="CrTpdOU12fkwMGm-i2Br-1" source="CrTpdOU12fkwMGm-i2Br-6" target="CrTpdOU12fkwMGm-i2Br-7">
          <mxGeometry width="160" relative="1" as="geometry">
            <mxPoint x="370" y="409.95238095238096" as="sourcePoint" />
            <mxPoint x="330" y="409.95238095238096" as="targetPoint" />
          </mxGeometry>
        </mxCell>
        <mxCell id="CrTpdOU12fkwMGm-i2Br-16" value="used by" style="edgeStyle=elbowEdgeStyle;html=1;endArrow=open;elbow=vertical;endFill=1;labelBackgroundColor=#ffffff;strokeColor=#000000;strokeWidth=1;fontSize=10;entryX=0.5;entryY=1;entryDx=0;entryDy=0;entryPerimeter=0;exitX=0.5;exitY=0;exitDx=0;exitDy=0;exitPerimeter=0;" edge="1" parent="CrTpdOU12fkwMGm-i2Br-1" source="CrTpdOU12fkwMGm-i2Br-6" target="CrTpdOU12fkwMGm-i2Br-11">
          <mxGeometry y="10" width="160" relative="1" as="geometry">
            <mxPoint x="370" y="399.95238095238096" as="sourcePoint" />
            <mxPoint x="330" y="399.95238095238096" as="targetPoint" />
            <mxPoint x="10" y="10" as="offset" />
          </mxGeometry>
        </mxCell>
        <mxCell id="CrTpdOU12fkwMGm-i2Br-17" value="orchestrated by" style="edgeStyle=elbowEdgeStyle;html=1;endArrow=open;elbow=vertical;endFill=1;labelBackgroundColor=#ffffff;strokeColor=#000000;strokeWidth=1;fontSize=10;entryX=0.5;entryY=1;entryDx=0;entryDy=0;entryPerimeter=0;" edge="1" parent="CrTpdOU12fkwMGm-i2Br-1" source="CrTpdOU12fkwMGm-i2Br-7" target="CrTpdOU12fkwMGm-i2Br-11">
          <mxGeometry x="0.0003" y="10" width="160" relative="1" as="geometry">
            <mxPoint x="410" y="369.95238095238096" as="sourcePoint" />
            <mxPoint x="410" y="329.95238095238096" as="targetPoint" />
            <mxPoint as="offset" />
          </mxGeometry>
        </mxCell>
        <mxCell id="CrTpdOU12fkwMGm-i2Br-18" value="orchestrated by" style="edgeStyle=elbowEdgeStyle;html=1;endArrow=open;elbow=vertical;endFill=1;labelBackgroundColor=#ffffff;strokeColor=#000000;strokeWidth=1;fontSize=10;entryX=0.5;entryY=1;entryDx=0;entryDy=0;entryPerimeter=0;exitX=0.5;exitY=0;exitDx=0;exitDy=0;exitPerimeter=0;" edge="1" parent="CrTpdOU12fkwMGm-i2Br-1">
          <mxGeometry y="-10" width="160" relative="1" as="geometry">
            <mxPoint x="280" y="369.95238095238096" as="sourcePoint" />
            <mxPoint x="400" y="329.95238095238096" as="targetPoint" />
            <mxPoint as="offset" />
          </mxGeometry>
        </mxCell>
        <mxCell id="CrTpdOU12fkwMGm-i2Br-19" value="&lt;font style=&quot;font-size: 10px&quot;&gt;protected by&lt;/font&gt;" style="edgeStyle=elbowEdgeStyle;html=1;endArrow=open;elbow=vertical;endFill=1;labelBackgroundColor=#ffffff;strokeColor=#000000;strokeWidth=1;fontSize=12;entryX=0.5;entryY=1;entryDx=0;entryDy=0;entryPerimeter=0;" edge="1" parent="CrTpdOU12fkwMGm-i2Br-1" source="CrTpdOU12fkwMGm-i2Br-11" target="CrTpdOU12fkwMGm-i2Br-12">
          <mxGeometry width="160" relative="1" as="geometry">
            <mxPoint x="400" y="250" as="sourcePoint" />
            <mxPoint x="410" y="319.95238095238096" as="targetPoint" />
          </mxGeometry>
        </mxCell>
        <mxCell id="CrTpdOU12fkwMGm-i2Br-20" value="" style="rounded=0;orthogonalLoop=1;jettySize=auto;html=1;endArrow=none;endFill=0;labelBackgroundColor=#ffffff;strokeColor=#000000;strokeWidth=1;fontSize=12;fontColor=#B3B3B3;exitX=0.5;exitY=0;exitDx=0;exitDy=0;exitPerimeter=0;" edge="1" parent="CrTpdOU12fkwMGm-i2Br-1" source="CrTpdOU12fkwMGm-i2Br-9" target="CrTpdOU12fkwMGm-i2Br-22">
          <mxGeometry relative="1" as="geometry">
            <mxPoint x="110" y="455" as="sourcePoint" />
            <mxPoint x="160" y="490" as="targetPoint" />
          </mxGeometry>
        </mxCell>
        <mxCell id="CrTpdOU12fkwMGm-i2Br-21" value="" style="rounded=0;orthogonalLoop=1;jettySize=auto;html=1;endArrow=halfCircle;endFill=0;entryX=0.5;entryY=0.5;entryDx=0;entryDy=0;endSize=6;strokeWidth=1;labelBackgroundColor=#ffffff;fontSize=12;fontColor=#B3B3B3;" edge="1" parent="CrTpdOU12fkwMGm-i2Br-1" source="CrTpdOU12fkwMGm-i2Br-8" target="CrTpdOU12fkwMGm-i2Br-22">
          <mxGeometry relative="1" as="geometry">
            <mxPoint x="150" y="455" as="sourcePoint" />
            <Array as="points">
              <mxPoint x="200" y="465" />
            </Array>
          </mxGeometry>
        </mxCell>
        <mxCell id="CrTpdOU12fkwMGm-i2Br-22" value="" style="ellipse;whiteSpace=wrap;html=1;fontFamily=Helvetica;fontSize=12;fontColor=#000000;align=center;strokeColor=#000000;fillColor=#ffffff;points=[];aspect=fixed;resizable=0;opacity=30;" vertex="1" parent="CrTpdOU12fkwMGm-i2Br-1">
          <mxGeometry x="195" y="485" width="10" height="10" as="geometry" />
        </mxCell>
        <mxCell id="CrTpdOU12fkwMGm-i2Br-23" value="" style="rounded=0;orthogonalLoop=1;jettySize=auto;html=1;endArrow=none;endFill=0;labelBackgroundColor=#ffffff;strokeColor=#000000;strokeWidth=1;fontSize=12;fontColor=#B3B3B3;exitX=0.5;exitY=0;exitDx=0;exitDy=0;exitPerimeter=0;" edge="1" parent="CrTpdOU12fkwMGm-i2Br-1" source="CrTpdOU12fkwMGm-i2Br-10" target="CrTpdOU12fkwMGm-i2Br-25">
          <mxGeometry relative="1" as="geometry">
            <mxPoint x="210" y="530" as="sourcePoint" />
            <mxPoint x="170" y="500" as="targetPoint" />
          </mxGeometry>
        </mxCell>
        <mxCell id="CrTpdOU12fkwMGm-i2Br-24" value="" style="rounded=0;orthogonalLoop=1;jettySize=auto;html=1;endArrow=halfCircle;endFill=0;endSize=6;strokeWidth=1;labelBackgroundColor=#ffffff;fontSize=12;fontColor=#B3B3B3;exitX=1;exitY=0.5;exitDx=0;exitDy=0;exitPerimeter=0;" edge="1" parent="CrTpdOU12fkwMGm-i2Br-1" source="CrTpdOU12fkwMGm-i2Br-8">
          <mxGeometry relative="1" as="geometry">
            <mxPoint x="505" y="476.5" as="sourcePoint" />
            <mxPoint x="360" y="489" as="targetPoint" />
            <Array as="points">
              <mxPoint x="360" y="465" />
            </Array>
          </mxGeometry>
        </mxCell>
        <mxCell id="CrTpdOU12fkwMGm-i2Br-25" value="" style="ellipse;whiteSpace=wrap;html=1;fontFamily=Helvetica;fontSize=12;fontColor=#000000;align=center;strokeColor=#000000;fillColor=#ffffff;points=[];aspect=fixed;resizable=0;opacity=30;" vertex="1" parent="CrTpdOU12fkwMGm-i2Br-1">
          <mxGeometry x="355" y="485" width="10" height="10" as="geometry" />
        </mxCell>
        <mxCell id="CrTpdOU12fkwMGm-i2Br-26" value="" style="rounded=0;orthogonalLoop=1;jettySize=auto;html=1;endArrow=none;endFill=0;labelBackgroundColor=#ffffff;strokeColor=#000000;strokeWidth=1;fontSize=10;fontColor=#B3B3B3;exitX=0.5;exitY=0;exitDx=0;exitDy=0;exitPerimeter=0;" edge="1" parent="CrTpdOU12fkwMGm-i2Br-1" source="CrTpdOU12fkwMGm-i2Br-12">
          <mxGeometry relative="1" as="geometry">
            <mxPoint x="540" y="290" as="sourcePoint" />
            <mxPoint x="400" y="180" as="targetPoint" />
          </mxGeometry>
        </mxCell>
        <mxCell id="CrTpdOU12fkwMGm-i2Br-27" value="" style="ellipse;whiteSpace=wrap;html=1;fontFamily=Helvetica;fontSize=12;fontColor=#000000;align=center;strokeColor=#000000;fillColor=#ffffff;points=[];aspect=fixed;resizable=0;opacity=30;" vertex="1" parent="CrTpdOU12fkwMGm-i2Br-1">
          <mxGeometry x="395" y="170" width="10" height="10" as="geometry" />
        </mxCell>
        <mxCell id="CrTpdOU12fkwMGm-i2Br-28" value="REST API &lt;br style=&quot;font-size: 12px;&quot;&gt;endpoints" style="text;html=1;align=center;verticalAlign=middle;resizable=0;points=[];;autosize=1;fontSize=12;fontColor=#666666;" vertex="1" parent="CrTpdOU12fkwMGm-i2Br-1">
          <mxGeometry x="405" y="165" width="70" height="30" as="geometry" />
        </mxCell>
        <mxCell id="CrTpdOU12fkwMGm-i2Br-30" value="" style="ellipse;whiteSpace=wrap;html=1;aspect=fixed;rounded=1;shadow=0;glass=0;labelBackgroundColor=none;strokeColor=#999999;strokeWidth=1;fillColor=#12AAB5;gradientColor=none;fontFamily=Helvetica;fontSize=16;fontColor=#2F5B7C;align=left;opacity=10;spacing=15;" vertex="1" parent="CrTpdOU12fkwMGm-i2Br-1">
          <mxGeometry x="190" y="260" width="260" height="260" as="geometry" />
        </mxCell>
        <mxCell id="CrTpdOU12fkwMGm-i2Br-31" value="Tech Domain" style="text;html=1;align=center;verticalAlign=middle;resizable=0;points=[];;autosize=1;fontSize=13;fontColor=#808080;" vertex="1" parent="CrTpdOU12fkwMGm-i2Br-1">
          <mxGeometry x="220" y="300" width="90" height="20" as="geometry" />
        </mxCell>
        <mxCell id="eM9NuHxjumAo5WjSCjS0-0" value="etc." style="text;html=1;align=center;verticalAlign=middle;resizable=0;points=[];;autosize=1;fontSize=12;fontColor=#808080;" vertex="1" parent="CrTpdOU12fkwMGm-i2Br-1">
          <mxGeometry x="440" y="510" width="30" height="20" as="geometry" />
        </mxCell>
        <mxCell id="eM9NuHxjumAo5WjSCjS0-3" value="A Non-Tech&lt;br&gt;(eg Biz, Support, etc.) &lt;br&gt;Domain" style="text;html=1;align=center;verticalAlign=middle;resizable=0;points=[];;autosize=1;fontSize=13;fontColor=#808080;" vertex="1" parent="CrTpdOU12fkwMGm-i2Br-1">
          <mxGeometry x="445" y="275" width="140" height="50" as="geometry" />
        </mxCell>
        <mxCell id="umhwNSngLGXPapnbDJFS-0" value="Title/Page" visible="0" parent="CrTpdOU12fkwMGm-i2Br-0" />
        <mxCell id="CrTpdOU12fkwMGm-i2Br-2" value="" style="group;fontSize=10;" vertex="1" connectable="0" parent="umhwNSngLGXPapnbDJFS-0">
          <mxGeometry x="120" y="120" width="560" height="45" as="geometry" />
        </mxCell>
        <mxCell id="CrTpdOU12fkwMGm-i2Br-3" value="&lt;font style=&quot;font-size: 12px&quot;&gt;Base Logical Module -&amp;nbsp;Development - DDD Logical Module&lt;/font&gt;" style="text;strokeColor=none;fillColor=none;html=1;fontSize=24;fontStyle=1;verticalAlign=middle;align=left;shadow=0;glass=0;comic=0;opacity=30;fontColor=#808080;" vertex="1" parent="CrTpdOU12fkwMGm-i2Br-2">
          <mxGeometry width="560" height="40" as="geometry" />
        </mxCell>
        <mxCell id="CrTpdOU12fkwMGm-i2Br-4" value="" style="line;strokeWidth=2;html=1;shadow=0;glass=0;comic=0;fillColor=none;fontSize=10;fontColor=#CCCCCC;labelBackgroundColor=none;strokeColor=#CCCCCC;" vertex="1" parent="CrTpdOU12fkwMGm-i2Br-2">
          <mxGeometry y="35" width="560" height="10" as="geometry" />
        </mxCell>
        <mxCell id="umhwNSngLGXPapnbDJFS-1" value="Title/Diagram" parent="CrTpdOU12fkwMGm-i2Br-0" />
        <mxCell id="umhwNSngLGXPapnbDJFS-2" value="&lt;font style=&quot;font-size: 12px ; font-weight: normal&quot;&gt;&lt;i&gt;Diagram: Base System Logical Module -&amp;nbsp;Development - A DDD Logical Module&lt;/i&gt;&lt;/font&gt;" style="text;strokeColor=none;fillColor=none;html=1;fontSize=24;fontStyle=1;verticalAlign=middle;align=left;shadow=0;glass=0;comic=0;opacity=30;fontColor=#808080;" vertex="1" parent="umhwNSngLGXPapnbDJFS-1">
          <mxGeometry x="120" y="620" width="520" height="20" as="geometry" />
        </mxCell>
        <mxCell id="zLA7FptYanXFUpuMRia_-0" value="About" parent="CrTpdOU12fkwMGm-i2Br-0" />
      </root>
    </mxGraphModel>
  </diagram>
</mxfile>
